<svg width="102" height="52" viewBox="0 0 102 52" fill="none" xmlns="http://www.w3.org/2000/svg">
<g clip-path="url(#clip0_10_60)">
<path d="M37.6866 22.1949C46.5269 17.0547 55.3672 11.9147 64.2075 6.77446" stroke="#5F5B5C" stroke-width="2.13909" stroke-miterlimit="3" stroke-linecap="round"/>
<path d="M65.2213 6.47699C84.2076 -0.157302 95.0617 6.43244 100.489 9.72741" stroke="#5F5B5C" stroke-width="2.13909" stroke-miterlimit="3" stroke-linecap="round"/>
<path d="M1.10071 19.3788C17.9053 29.4504 30.9061 24.6523 37.4063 22.253" stroke="#5F5B5C" stroke-width="2.13909" stroke-miterlimit="3" stroke-linecap="round"/>
<path d="M37.4777 6.8443C46.4252 12.0705 55.3727 17.2967 64.3202 22.5228" stroke="#5F5B5C" stroke-width="2.13909" stroke-miterlimit="3" stroke-linecap="round"/>
<path d="M50.7503 22.503C55.1087 22.503 58.642 18.9698 58.642 14.6114C58.642 10.2529 55.1087 6.71965 50.7503 6.71965C46.3917 6.71965 42.8585 10.2529 42.8585 14.6114C42.8585 18.9698 46.3917 22.503 50.7503 22.503Z" stroke="#5F5B5C" stroke-width="2.13909" stroke-miterlimit="3" stroke-linecap="round"/>
<path fill-rule="evenodd" clip-rule="evenodd" d="M64.2569 1.20366L37.4626 1.14903L37.408 27.8339L64.421 28.162L64.2569 1.20366Z" stroke="#5F5B5C" stroke-width="2.13909" stroke-miterlimit="1.5" stroke-linecap="round"/>
<path d="M15.1016 51.7216H6.59863V39.3622H8.15673V50.3318H15.1016V51.7216Z" fill="#5F5B5C"/>
<path d="M30.0648 51.7217H28.4403L23.992 41.103L20.7448 48.8188L19.5287 51.7217H17.9041L23.272 39.3535H24.697L30.0648 51.7217Z" fill="#5F5B5C"/>
<path d="M34.0171 51.7216V39.3622H38.7673C39.673 39.3622 40.4663 39.5265 41.1472 39.8548C41.8281 40.1832 42.3522 40.6466 42.7195 41.2447C43.0869 41.8428 43.2706 42.5319 43.2706 43.3119C43.2706 44.1213 43.09 44.8295 42.729 45.4364C42.368 46.0433 41.8486 46.5125 41.171 46.8439C40.4933 47.1752 39.6952 47.3409 38.7768 47.3409H35.5751V51.7216H34.0171ZM38.6629 46.0126C39.2709 46.0126 39.8045 45.9026 40.2636 45.6827C40.7229 45.4627 41.0775 45.1505 41.3277 44.7458C41.5779 44.3412 41.703 43.8691 41.703 43.3295C41.703 42.7959 41.5779 42.3311 41.3277 41.9353C41.0775 41.5395 40.7229 41.2329 40.2636 41.016C39.8045 40.799 39.2709 40.6905 38.6629 40.6905H35.5751V46.0126H38.6629Z" fill="#5F5B5C"/>
<path d="M49.1419 39.3622H47.5838V51.7216H49.1419V39.3622Z" fill="#5F5B5C"/>
<path d="M58.5283 51.8888C57.5023 51.8888 56.5254 51.7013 55.5974 51.3259C54.6695 50.9505 53.9016 50.4139 53.2936 49.716L54.3196 48.8012C54.82 49.3583 55.4471 49.7864 56.2007 50.0855C56.9544 50.3846 57.7303 50.5342 58.5283 50.5342C59.13 50.5342 59.6716 50.4492 60.1529 50.279C60.6343 50.109 61.0128 49.8583 61.2882 49.5269C61.5638 49.1956 61.7016 48.7924 61.7016 48.3174C61.7016 47.8541 61.5511 47.4788 61.2503 47.1913C60.9494 46.904 60.5567 46.6738 60.0722 46.5008C59.5877 46.3278 58.9148 46.1357 58.0533 45.9247C57.2173 45.7252 56.5096 45.5082 55.93 45.2736C55.3504 45.039 54.8613 44.6975 54.4621 44.2489C54.0632 43.8001 53.8636 43.2211 53.8636 42.5115C53.8636 41.8664 54.0552 41.2932 54.4384 40.7916C54.8216 40.2903 55.3584 39.8988 56.0487 39.6174C56.7391 39.3359 57.534 39.195 58.4334 39.195C59.2821 39.195 60.0992 39.3314 60.8846 39.6042C61.6698 39.8769 62.3508 40.2624 62.9271 40.7609L61.9961 41.755C61.5527 41.3796 61.0191 41.082 60.3952 40.8621C59.7713 40.6421 59.1395 40.5322 58.4999 40.5322C57.9361 40.5322 57.42 40.6128 56.9513 40.7741C56.4826 40.9354 56.1105 41.17 55.8349 41.4778C55.5594 41.7858 55.4217 42.1449 55.4217 42.5555C55.4217 42.9836 55.5642 43.3295 55.8492 43.5935C56.1343 43.8574 56.4921 44.0641 56.9228 44.2136C57.3534 44.3632 57.9711 44.5377 58.7754 44.7371C59.7444 44.9951 60.5378 45.2532 61.1552 45.5112C61.7728 45.7692 62.281 46.1225 62.6801 46.5712C63.0791 47.0199 63.2787 47.5931 63.2787 48.2909C63.2787 49.0417 63.0696 49.6882 62.6516 50.2307C62.2336 50.7731 61.6651 51.1851 60.9463 51.4666C60.2275 51.7481 59.4214 51.8888 58.5283 51.8888Z" fill="#5F5B5C"/>
<path d="M73.6247 51.924C72.3644 51.924 71.2101 51.641 70.1619 51.0751C69.1136 50.5091 68.2839 49.7379 67.6727 48.7616C67.0615 47.785 66.7559 46.7104 66.7559 45.5375C66.7559 44.3646 67.0615 43.29 67.6727 42.3135C68.2839 41.3371 69.1136 40.5674 70.1619 40.0043C71.2101 39.4413 72.3644 39.1599 73.6247 39.1599C74.4988 39.1599 75.3191 39.2962 76.0854 39.5689C76.8519 39.8416 77.539 40.2213 78.147 40.7081L77.254 41.7901C76.7536 41.4031 76.193 41.0995 75.5725 40.8797C74.9517 40.6597 74.3025 40.5498 73.6247 40.5498C72.6684 40.5498 71.7865 40.7697 70.979 41.2095C70.1714 41.6494 69.5302 42.252 69.055 43.0172C68.58 43.7826 68.3425 44.6255 68.3425 45.5463C68.3425 46.467 68.58 47.3071 69.055 48.0666C69.5302 48.8261 70.1714 49.4258 70.979 49.8656C71.7865 50.3054 72.6684 50.5253 73.6247 50.5253C74.3025 50.5253 74.939 50.4168 75.5344 50.1998C76.1297 49.9828 76.7093 49.6632 77.2731 49.2409L78.147 50.3406C77.5264 50.8332 76.8328 51.2203 76.0665 51.5018C75.3001 51.7833 74.4861 51.924 73.6247 51.924Z" fill="#5F5B5C"/>
<path d="M88.1225 51.924C86.8621 51.924 85.7078 51.641 84.6596 51.0751C83.6113 50.5091 82.7816 49.7379 82.1703 48.7616C81.5591 47.785 81.2537 46.7104 81.2537 45.5375C81.2537 44.3646 81.5591 43.29 82.1703 42.3135C82.7816 41.3371 83.6113 40.5674 84.6596 40.0043C85.7078 39.4413 86.8621 39.1599 88.1225 39.1599C89.3829 39.1599 90.5387 39.4413 91.5901 40.0043C92.6416 40.5674 93.4711 41.3371 94.0792 42.3135C94.6872 43.29 94.9913 44.3646 94.9913 45.5375C94.9913 46.7104 94.6872 47.785 94.0792 48.7616C93.4711 49.7379 92.6416 50.5091 91.5901 51.0751C90.5387 51.641 89.3829 51.924 88.1225 51.924ZM88.1225 50.5253C89.0788 50.5253 89.9625 50.3054 90.7731 49.8656C91.5838 49.4258 92.2267 48.8261 92.7018 48.0666C93.1764 47.3071 93.4146 46.467 93.4146 45.5463C93.4146 44.6255 93.1764 43.7826 92.7018 43.0172C92.2267 42.252 91.5838 41.6494 90.7731 41.2095C89.9625 40.7697 89.0788 40.5498 88.1225 40.5498C87.1661 40.5498 86.2842 40.7697 85.4766 41.2095C84.6691 41.6494 84.0278 42.252 83.5528 43.0172C83.0778 43.7826 82.8401 44.6255 82.8401 45.5463C82.8401 46.467 83.0778 47.3071 83.5528 48.0666C84.0278 48.8261 84.6691 49.4258 85.4766 49.8656C86.2842 50.3054 87.1661 50.5253 88.1225 50.5253Z" fill="#5F5B5C"/>
</g>
<defs>
<clipPath id="clip0_10_60">
<rect width="101.59" height="52" fill="white"/>
</clipPath>
</defs>
</svg>
