<svg width="102" height="52" viewBox="0 0 102 52" fill="none" xmlns="http://www.w3.org/2000/svg">
<g clip-path="url(#clip0_217_2)">
<path d="M37.6866 22.1949C46.5269 17.0547 55.3672 11.9147 64.2075 6.77448" stroke="#E9E9E9" stroke-width="2.13909" stroke-miterlimit="3" stroke-linecap="round"/>
<path d="M65.2213 6.477C84.2077 -0.157287 95.0618 6.43245 100.489 9.72743" stroke="#E9E9E9" stroke-width="2.13909" stroke-miterlimit="3" stroke-linecap="round"/>
<path d="M1.10071 19.3787C17.9053 29.4504 30.9061 24.6522 37.4063 22.253" stroke="#E9E9E9" stroke-width="2.13909" stroke-miterlimit="3" stroke-linecap="round"/>
<path d="M37.4777 6.8443C46.4252 12.0705 55.3727 17.2967 64.3202 22.5228" stroke="#E9E9E9" stroke-width="2.13909" stroke-miterlimit="3" stroke-linecap="round"/>
<path d="M50.7503 22.503C55.1087 22.503 58.642 18.9698 58.642 14.6114C58.642 10.2529 55.1087 6.71967 50.7503 6.71967C46.3917 6.71967 42.8585 10.2529 42.8585 14.6114C42.8585 18.9698 46.3917 22.503 50.7503 22.503Z" stroke="#E9E9E9" stroke-width="2.13909" stroke-miterlimit="3" stroke-linecap="round"/>
<path fill-rule="evenodd" clip-rule="evenodd" d="M64.2569 1.20367L37.4626 1.14905L37.408 27.8339L64.421 28.162L64.2569 1.20367Z" stroke="#E9E9E9" stroke-width="2.13909" stroke-miterlimit="1.5" stroke-linecap="round"/>
<path d="M15.1016 51.7217H6.59863V39.3622H8.15673V50.3318H15.1016V51.7217Z" fill="#E9E9E9"/>
<path d="M30.0649 51.7217H28.4403L23.9921 41.103L20.7449 48.8188L19.5288 51.7217H17.9042L23.272 39.3535H24.6971L30.0649 51.7217Z" fill="#E9E9E9"/>
<path d="M34.0171 51.7217V39.3622H38.7673C39.673 39.3622 40.4663 39.5265 41.1472 39.8548C41.8281 40.1832 42.3522 40.6466 42.7195 41.2447C43.0869 41.8429 43.2706 42.5319 43.2706 43.3119C43.2706 44.1213 43.09 44.8295 42.729 45.4364C42.368 46.0434 41.8486 46.5125 41.171 46.8439C40.4933 47.1752 39.6952 47.341 38.7768 47.341H35.5751V51.7217H34.0171ZM38.6629 46.0126C39.2709 46.0126 39.8045 45.9027 40.2636 45.6827C40.7229 45.4627 41.0775 45.1505 41.3277 44.7458C41.5779 44.3412 41.703 43.8691 41.703 43.3295C41.703 42.7959 41.5779 42.3312 41.3277 41.9353C41.0775 41.5395 40.7229 41.2329 40.2636 41.016C39.8045 40.7991 39.2709 40.6905 38.6629 40.6905H35.5751V46.0126H38.6629Z" fill="#E9E9E9"/>
<path d="M49.1418 39.3622H47.5837V51.7217H49.1418V39.3622Z" fill="#E9E9E9"/>
<path d="M58.5283 51.8888C57.5023 51.8888 56.5254 51.7012 55.5974 51.3258C54.6695 50.9505 53.9016 50.4138 53.2936 49.716L54.3196 48.8012C54.82 49.3583 55.4471 49.7864 56.2007 50.0855C56.9544 50.3846 57.7303 50.5342 58.5283 50.5342C59.13 50.5342 59.6716 50.4492 60.1529 50.279C60.6343 50.109 61.0128 49.8582 61.2882 49.5269C61.5638 49.1956 61.7016 48.7924 61.7016 48.3173C61.7016 47.8541 61.5511 47.4788 61.2503 47.1913C60.9494 46.904 60.5567 46.6738 60.0722 46.5008C59.5877 46.3278 58.9148 46.1357 58.0533 45.9247C57.2173 45.7252 56.5096 45.5082 55.93 45.2736C55.3504 45.039 54.8613 44.6975 54.4621 44.2489C54.0632 43.8001 53.8636 43.2211 53.8636 42.5115C53.8636 41.8664 54.0552 41.2932 54.4384 40.7916C54.8216 40.2903 55.3584 39.8988 56.0487 39.6174C56.7391 39.3359 57.534 39.195 58.4334 39.195C59.2821 39.195 60.0992 39.3314 60.8846 39.6041C61.6698 39.8768 62.3508 40.2624 62.9271 40.7608L61.9961 41.755C61.5527 41.3796 61.0191 41.082 60.3952 40.8621C59.7713 40.6421 59.1395 40.5322 58.4999 40.5322C57.9361 40.5322 57.42 40.6128 56.9513 40.7741C56.4826 40.9354 56.1105 41.17 55.8349 41.4778C55.5594 41.7857 55.4217 42.1449 55.4217 42.5554C55.4217 42.9836 55.5642 43.3295 55.8492 43.5935C56.1343 43.8574 56.4921 44.0641 56.9228 44.2136C57.3534 44.3632 57.9711 44.5377 58.7754 44.737C59.7444 44.9951 60.5378 45.2531 61.1552 45.5112C61.7728 45.7692 62.2811 46.1225 62.6801 46.5712C63.0791 47.0198 63.2787 47.5931 63.2787 48.2909C63.2787 49.0416 63.0696 49.6882 62.6516 50.2307C62.2336 50.7731 61.6651 51.185 60.9463 51.4665C60.2275 51.748 59.4214 51.8888 58.5283 51.8888Z" fill="#E9E9E9"/>
<path d="M73.6247 51.924C72.3644 51.924 71.2101 51.641 70.1618 51.0751C69.1136 50.5092 68.2839 49.738 67.6727 48.7617C67.0615 47.7851 66.7559 46.7105 66.7559 45.5376C66.7559 44.3646 67.0615 43.2901 67.6727 42.3136C68.2839 41.3371 69.1136 40.5674 70.1618 40.0043C71.2101 39.4413 72.3644 39.1599 73.6247 39.1599C74.4988 39.1599 75.3191 39.2963 76.0854 39.569C76.8518 39.8417 77.539 40.2213 78.1469 40.7081L77.2539 41.7901C76.7536 41.4031 76.193 41.0996 75.5724 40.8797C74.9517 40.6598 74.3024 40.5498 73.6247 40.5498C72.6684 40.5498 71.7864 40.7697 70.9789 41.2095C70.1714 41.6494 69.5301 42.252 69.055 43.0173C68.5799 43.7826 68.3425 44.6256 68.3425 45.5464C68.3425 46.4671 68.5799 47.3071 69.055 48.0666C69.5301 48.8262 70.1714 49.4258 70.9789 49.8656C71.7864 50.3054 72.6684 50.5253 73.6247 50.5253C74.3024 50.5253 74.939 50.4168 75.5343 50.1999C76.1297 49.9829 76.7093 49.6633 77.273 49.241L78.1469 50.3407C77.5264 50.8332 76.8327 51.2203 76.0665 51.5018C75.3 51.7833 74.4861 51.924 73.6247 51.924Z" fill="#E9E9E9"/>
<path d="M88.1226 51.924C86.8622 51.924 85.7079 51.641 84.6596 51.0751C83.6114 50.5092 82.7816 49.738 82.1704 48.7617C81.5592 47.7851 81.2538 46.7105 81.2538 45.5376C81.2538 44.3646 81.5592 43.2901 82.1704 42.3136C82.7816 41.3371 83.6114 40.5674 84.6596 40.0043C85.7079 39.4413 86.8622 39.1599 88.1226 39.1599C89.3829 39.1599 90.5388 39.4413 91.5902 40.0043C92.6417 40.5674 93.4712 41.3371 94.0792 42.3136C94.6873 43.2901 94.9913 44.3646 94.9913 45.5376C94.9913 46.7105 94.6873 47.7851 94.0792 48.7617C93.4712 49.738 92.6417 50.5092 91.5902 51.0751C90.5388 51.641 89.3829 51.924 88.1226 51.924ZM88.1226 50.5253C89.0789 50.5253 89.9625 50.3054 90.7731 49.8656C91.5839 49.4258 92.2268 48.8262 92.7018 48.0666C93.1764 47.3071 93.4146 46.4671 93.4146 45.5464C93.4146 44.6256 93.1764 43.7826 92.7018 43.0173C92.2268 42.252 91.5839 41.6494 90.7731 41.2095C89.9625 40.7697 89.0789 40.5498 88.1226 40.5498C87.1662 40.5498 86.2842 40.7697 85.4766 41.2095C84.6692 41.6494 84.0279 42.252 83.5528 43.0173C83.0779 43.7826 82.8402 44.6256 82.8402 45.5464C82.8402 46.4671 83.0779 47.3071 83.5528 48.0666C84.0279 48.8262 84.6692 49.4258 85.4766 49.8656C86.2842 50.3054 87.1662 50.5253 88.1226 50.5253Z" fill="#E9E9E9"/>
</g>
<defs>
<clipPath id="clip0_217_2">
<rect width="101.59" height="52" fill="white"/>
</clipPath>
</defs>
</svg>
